<svg stroke="currentColor" fill="none" stroke-width="2" viewBox="0 0 24 24" stroke-linecap="round" stroke-linejoin="round" class="css-1oa69wg" height="1em" width="1em" xmlns="http://www.w3.org/2000/svg">
  <path stroke="none" d="M0 0h24v24H0z" fill="none"></path>
  <path d="M15 16l.117-.007a1 1 0 0 0 .883-.993v-1.999l2.586-.001a2 2 0 0 0 1.414-3.414l-6.586-6.586a2 2 0 0 0-2.828 0l-6.586 6.586a2 2 0 0 0-.434 2.18l.068.145a2 2 0 0 0 1.78 1.089l2.586.001v1.999a1 1 0 0 0 1 1h6z" stroke-width="0" fill="currentColor"></path>
  <path d="M9 22a1 1 0 0 1-.117-1.993l.117-.007h6a1 1 0 0 1 .117 1.993l-.117.007h-6z" stroke-width="0" fill="currentColor"></path>
  <path d="M9 19a1 1 0 0 1-.117-1.993l.117-.007h6a1 1 0 0 1 .117 1.993l-.117.007h-6z" stroke-width="0" fill="currentColor"></path>
</svg>